<svg width="32" height="32" viewBox="0 0 32 32" fill="none" xmlns="http://www.w3.org/2000/svg">
  <defs>
    <linearGradient id="brainGradient" x1="0%" y1="0%" x2="100%" y2="100%">
      <stop offset="0%" style="stop-color:#3B82F6;stop-opacity:1" />
      <stop offset="50%" style="stop-color:#8B5CF6;stop-opacity:1" />
      <stop offset="100%" style="stop-color:#EC4899;stop-opacity:1" />
    </linearGradient>
    <linearGradient id="pulseGradient" x1="0%" y1="0%" x2="100%" y2="0%">
      <stop offset="0%" style="stop-color:#10B981;stop-opacity:0.8" />
      <stop offset="50%" style="stop-color:#3B82F6;stop-opacity:0.8" />
      <stop offset="100%" style="stop-color:#8B5CF6;stop-opacity:0.8" />
    </linearGradient>
  </defs>
  
  <!-- Background circle -->
  <circle cx="16" cy="16" r="15" fill="url(#brainGradient)" stroke="#1F2937" stroke-width="1"/>
  
  <!-- Brain lobes -->
  <path d="M12 8C12 6.89543 12.8954 6 14 6H18C19.1046 6 20 6.89543 20 8V12C20 13.1046 19.1046 14 18 14H14C12.8954 14 12 13.1046 12 12V8Z" fill="white" opacity="0.9"/>
  <path d="M10 12C10 10.8954 10.8954 10 12 10H14C15.1046 10 16 10.8954 16 12V16C16 17.1046 15.1046 18 14 18H12C10.8954 18 10 17.1046 10 16V12Z" fill="white" opacity="0.8"/>
  <path d="M16 12C16 10.8954 16.8954 10 18 10H20C21.1046 10 22 10.8954 22 12V16C22 17.1046 21.1046 18 20 18H18C16.8954 18 16 17.1046 16 16V12Z" fill="white" opacity="0.8"/>
  
  <!-- Neural connections -->
  <circle cx="14" cy="10" r="1" fill="#3B82F6"/>
  <circle cx="18" cy="10" r="1" fill="#8B5CF6"/>
  <circle cx="16" cy="14" r="1" fill="#EC4899"/>
  <circle cx="12" cy="14" r="1" fill="#10B981"/>
  <circle cx="20" cy="14" r="1" fill="#F59E0B"/>
  
  <!-- Pulse waves -->
  <circle cx="16" cy="16" r="8" fill="none" stroke="url(#pulseGradient)" stroke-width="1" opacity="0.6">
    <animate attributeName="r" values="8;12;8" dur="2s" repeatCount="indefinite"/>
    <animate attributeName="opacity" values="0.6;0.2;0.6" dur="2s" repeatCount="indefinite"/>
  </circle>
  
  <!-- Feed icon -->
  <rect x="24" y="8" width="2" height="2" rx="1" fill="white"/>
  <rect x="24" y="12" width="2" height="2" rx="1" fill="white"/>
  <rect x="24" y="16" width="2" height="2" rx="1" fill="white"/>
</svg> 